<mxfile host="app.diagrams.net" modified="2023-11-04T14:43:12.472Z" agent="Mozilla/5.0 (Windows NT 10.0; Win64; x64) AppleWebKit/537.36 (KHTML, like Gecko) Chrome/119.0.0.0 Safari/537.36" etag="DB7naJtRzDy1XRnS2eBX" version="22.0.8" type="github">
  <diagram name="Page-1" id="ooymN39htJFAiMMMNbam">
    <mxGraphModel dx="1434" dy="1907" grid="1" gridSize="10" guides="1" tooltips="1" connect="1" arrows="1" fold="1" page="1" pageScale="1" pageWidth="827" pageHeight="1169" math="0" shadow="0">
      <root>
        <mxCell id="0" />
        <mxCell id="1" parent="0" />
        <mxCell id="35AxEwu4sgub31DyYWiS-1" value="" style="endArrow=none;html=1;rounded=0;" parent="1" edge="1">
          <mxGeometry width="50" height="50" relative="1" as="geometry">
            <mxPoint x="240" y="-330" as="sourcePoint" />
            <mxPoint x="240" y="-670" as="targetPoint" />
          </mxGeometry>
        </mxCell>
        <mxCell id="35AxEwu4sgub31DyYWiS-2" value="" style="endArrow=none;html=1;rounded=0;" parent="1" edge="1">
          <mxGeometry width="50" height="50" relative="1" as="geometry">
            <mxPoint x="560" y="-330" as="sourcePoint" />
            <mxPoint x="560" y="-670" as="targetPoint" />
          </mxGeometry>
        </mxCell>
        <mxCell id="35AxEwu4sgub31DyYWiS-3" value="Frontend" style="text;html=1;strokeColor=none;fillColor=none;align=center;verticalAlign=middle;whiteSpace=wrap;rounded=0;" parent="1" vertex="1">
          <mxGeometry x="70" y="-680" width="60" height="30" as="geometry" />
        </mxCell>
        <mxCell id="35AxEwu4sgub31DyYWiS-4" value="Backend" style="text;html=1;strokeColor=none;fillColor=none;align=center;verticalAlign=middle;whiteSpace=wrap;rounded=0;" parent="1" vertex="1">
          <mxGeometry x="370" y="-680" width="60" height="30" as="geometry" />
        </mxCell>
        <mxCell id="35AxEwu4sgub31DyYWiS-5" value="Backend" style="text;html=1;strokeColor=none;fillColor=none;align=center;verticalAlign=middle;whiteSpace=wrap;rounded=0;" parent="1" vertex="1">
          <mxGeometry x="670" y="-680" width="60" height="30" as="geometry" />
        </mxCell>
        <mxCell id="35AxEwu4sgub31DyYWiS-9" value="" style="endArrow=classic;html=1;rounded=0;exitX=1.069;exitY=0.481;exitDx=0;exitDy=0;exitPerimeter=0;" parent="1" edge="1">
          <mxGeometry width="50" height="50" relative="1" as="geometry">
            <mxPoint x="170" y="-615" as="sourcePoint" />
            <mxPoint x="330" y="-614" as="targetPoint" />
          </mxGeometry>
        </mxCell>
        <mxCell id="35AxEwu4sgub31DyYWiS-12" value="" style="rounded=0;whiteSpace=wrap;html=1;" parent="1" vertex="1">
          <mxGeometry x="40" y="-630" width="120" height="60" as="geometry" />
        </mxCell>
        <mxCell id="35AxEwu4sgub31DyYWiS-13" value="Flutter" style="text;html=1;strokeColor=none;fillColor=none;align=center;verticalAlign=middle;whiteSpace=wrap;rounded=0;" parent="1" vertex="1">
          <mxGeometry x="70" y="-614" width="60" height="30" as="geometry" />
        </mxCell>
        <mxCell id="35AxEwu4sgub31DyYWiS-14" value="" style="rounded=0;whiteSpace=wrap;html=1;" parent="1" vertex="1">
          <mxGeometry x="340" y="-630" width="120" height="60" as="geometry" />
        </mxCell>
        <mxCell id="35AxEwu4sgub31DyYWiS-15" value="" style="rounded=0;whiteSpace=wrap;html=1;" parent="1" vertex="1">
          <mxGeometry x="630" y="-630" width="120" height="60" as="geometry" />
        </mxCell>
        <mxCell id="35AxEwu4sgub31DyYWiS-16" value="NodeJs" style="text;html=1;strokeColor=none;fillColor=none;align=center;verticalAlign=middle;whiteSpace=wrap;rounded=0;" parent="1" vertex="1">
          <mxGeometry x="370" y="-630" width="60" height="30" as="geometry" />
        </mxCell>
        <mxCell id="35AxEwu4sgub31DyYWiS-17" value="Flask" style="text;html=1;strokeColor=none;fillColor=none;align=center;verticalAlign=middle;whiteSpace=wrap;rounded=0;" parent="1" vertex="1">
          <mxGeometry x="660" y="-620" width="60" height="30" as="geometry" />
        </mxCell>
        <mxCell id="35AxEwu4sgub31DyYWiS-19" value="" style="endArrow=classic;html=1;rounded=0;" parent="1" edge="1">
          <mxGeometry width="50" height="50" relative="1" as="geometry">
            <mxPoint x="330" y="-590" as="sourcePoint" />
            <mxPoint x="170" y="-590" as="targetPoint" />
          </mxGeometry>
        </mxCell>
        <mxCell id="35AxEwu4sgub31DyYWiS-20" value="&lt;font style=&quot;font-size: 9px;&quot;&gt;Cron (Runs Every 1 hour)&lt;/font&gt;" style="text;html=1;strokeColor=none;fillColor=none;align=center;verticalAlign=middle;whiteSpace=wrap;rounded=0;" parent="1" vertex="1">
          <mxGeometry x="325" y="-610" width="150" height="30" as="geometry" />
        </mxCell>
        <mxCell id="35AxEwu4sgub31DyYWiS-21" value="" style="endArrow=classic;html=1;rounded=0;exitX=0.5;exitY=1;exitDx=0;exitDy=0;entryX=0.5;entryY=0;entryDx=0;entryDy=0;entryPerimeter=0;" parent="1" edge="1">
          <mxGeometry relative="1" as="geometry">
            <mxPoint x="399.71" y="-570" as="sourcePoint" />
            <mxPoint x="399.71" y="-470" as="targetPoint" />
            <Array as="points">
              <mxPoint x="350" y="-520" />
            </Array>
          </mxGeometry>
        </mxCell>
        <mxCell id="35AxEwu4sgub31DyYWiS-22" value="" style="shape=message;html=1;outlineConnect=0;" parent="35AxEwu4sgub31DyYWiS-21" vertex="1">
          <mxGeometry width="20" height="14" relative="1" as="geometry">
            <mxPoint x="-10" y="-7" as="offset" />
          </mxGeometry>
        </mxCell>
        <mxCell id="35AxEwu4sgub31DyYWiS-23" value="" style="shape=cylinder3;whiteSpace=wrap;html=1;boundedLbl=1;backgroundOutline=1;size=15;" parent="1" vertex="1">
          <mxGeometry x="370" y="-470" width="60" height="80" as="geometry" />
        </mxCell>
        <mxCell id="35AxEwu4sgub31DyYWiS-24" value="Mongo&lt;br&gt;DB" style="text;html=1;strokeColor=none;fillColor=none;align=center;verticalAlign=middle;whiteSpace=wrap;rounded=0;" parent="1" vertex="1">
          <mxGeometry x="370" y="-440" width="60" height="30" as="geometry" />
        </mxCell>
        <mxCell id="35AxEwu4sgub31DyYWiS-25" value="&lt;font style=&quot;font-size: 8px;&quot;&gt;Cron Saves the News Data Every Hour with TTL of 24 Hours&lt;/font&gt;" style="text;html=1;strokeColor=none;fillColor=none;align=center;verticalAlign=middle;whiteSpace=wrap;rounded=0;" parent="1" vertex="1">
          <mxGeometry x="240" y="-510" width="120" height="30" as="geometry" />
        </mxCell>
        <mxCell id="35AxEwu4sgub31DyYWiS-26" value="" style="endArrow=classic;html=1;rounded=0;exitX=0.5;exitY=0;exitDx=0;exitDy=0;exitPerimeter=0;" parent="1" source="35AxEwu4sgub31DyYWiS-23" edge="1">
          <mxGeometry relative="1" as="geometry">
            <mxPoint x="409.71" y="-560" as="sourcePoint" />
            <mxPoint x="400" y="-570" as="targetPoint" />
            <Array as="points">
              <mxPoint x="450" y="-520" />
            </Array>
          </mxGeometry>
        </mxCell>
        <mxCell id="35AxEwu4sgub31DyYWiS-27" value="" style="shape=message;html=1;outlineConnect=0;" parent="35AxEwu4sgub31DyYWiS-26" vertex="1">
          <mxGeometry width="20" height="14" relative="1" as="geometry">
            <mxPoint x="-10" y="-7" as="offset" />
          </mxGeometry>
        </mxCell>
        <mxCell id="35AxEwu4sgub31DyYWiS-28" value="&lt;span style=&quot;font-size: 8px;&quot;&gt;Sends&amp;nbsp; back stored the News which was stored During Last Job run&lt;/span&gt;" style="text;html=1;strokeColor=none;fillColor=none;align=center;verticalAlign=middle;whiteSpace=wrap;rounded=0;" parent="1" vertex="1">
          <mxGeometry x="430" y="-500" width="130" height="30" as="geometry" />
        </mxCell>
        <mxCell id="35AxEwu4sgub31DyYWiS-29" value="&lt;font style=&quot;font-size: 10px;&quot;&gt;Get News Called&lt;/font&gt;" style="text;html=1;strokeColor=none;fillColor=none;align=center;verticalAlign=middle;whiteSpace=wrap;rounded=0;" parent="1" vertex="1">
          <mxGeometry x="190" y="-640" width="140" height="30" as="geometry" />
        </mxCell>
        <mxCell id="35AxEwu4sgub31DyYWiS-30" value="&lt;font style=&quot;font-size: 10px;&quot;&gt;Sends back pagnised news list&lt;/font&gt;" style="text;html=1;strokeColor=none;fillColor=none;align=center;verticalAlign=middle;whiteSpace=wrap;rounded=0;" parent="1" vertex="1">
          <mxGeometry x="180" y="-599" width="150" height="30" as="geometry" />
        </mxCell>
        <mxCell id="35AxEwu4sgub31DyYWiS-31" value="" style="endArrow=none;html=1;rounded=0;" parent="1" edge="1">
          <mxGeometry width="50" height="50" relative="1" as="geometry">
            <mxPoint x="240" y="70" as="sourcePoint" />
            <mxPoint x="240" y="-270" as="targetPoint" />
          </mxGeometry>
        </mxCell>
        <mxCell id="35AxEwu4sgub31DyYWiS-32" value="" style="endArrow=none;html=1;rounded=0;" parent="1" edge="1">
          <mxGeometry width="50" height="50" relative="1" as="geometry">
            <mxPoint x="560" y="70" as="sourcePoint" />
            <mxPoint x="560" y="-270" as="targetPoint" />
          </mxGeometry>
        </mxCell>
        <mxCell id="35AxEwu4sgub31DyYWiS-33" value="Frontend" style="text;html=1;strokeColor=none;fillColor=none;align=center;verticalAlign=middle;whiteSpace=wrap;rounded=0;" parent="1" vertex="1">
          <mxGeometry x="70" y="-280" width="60" height="30" as="geometry" />
        </mxCell>
        <mxCell id="35AxEwu4sgub31DyYWiS-34" value="Backend" style="text;html=1;strokeColor=none;fillColor=none;align=center;verticalAlign=middle;whiteSpace=wrap;rounded=0;" parent="1" vertex="1">
          <mxGeometry x="370" y="-280" width="60" height="30" as="geometry" />
        </mxCell>
        <mxCell id="35AxEwu4sgub31DyYWiS-35" value="Backend" style="text;html=1;strokeColor=none;fillColor=none;align=center;verticalAlign=middle;whiteSpace=wrap;rounded=0;" parent="1" vertex="1">
          <mxGeometry x="670" y="-280" width="60" height="30" as="geometry" />
        </mxCell>
        <mxCell id="35AxEwu4sgub31DyYWiS-36" value="" style="endArrow=classic;html=1;rounded=0;exitX=1.069;exitY=0.481;exitDx=0;exitDy=0;exitPerimeter=0;" parent="1" edge="1">
          <mxGeometry width="50" height="50" relative="1" as="geometry">
            <mxPoint x="170" y="-215" as="sourcePoint" />
            <mxPoint x="330" y="-214" as="targetPoint" />
          </mxGeometry>
        </mxCell>
        <mxCell id="35AxEwu4sgub31DyYWiS-37" value="" style="endArrow=classic;html=1;rounded=0;" parent="1" edge="1">
          <mxGeometry width="50" height="50" relative="1" as="geometry">
            <mxPoint x="470" y="-215" as="sourcePoint" />
            <mxPoint x="620" y="-214" as="targetPoint" />
          </mxGeometry>
        </mxCell>
        <mxCell id="35AxEwu4sgub31DyYWiS-38" value="" style="rounded=0;whiteSpace=wrap;html=1;" parent="1" vertex="1">
          <mxGeometry x="40" y="-230" width="120" height="60" as="geometry" />
        </mxCell>
        <mxCell id="35AxEwu4sgub31DyYWiS-39" value="Flutter" style="text;html=1;strokeColor=none;fillColor=none;align=center;verticalAlign=middle;whiteSpace=wrap;rounded=0;" parent="1" vertex="1">
          <mxGeometry x="70" y="-214" width="60" height="30" as="geometry" />
        </mxCell>
        <mxCell id="35AxEwu4sgub31DyYWiS-40" value="" style="rounded=0;whiteSpace=wrap;html=1;" parent="1" vertex="1">
          <mxGeometry x="340" y="-230" width="120" height="60" as="geometry" />
        </mxCell>
        <mxCell id="35AxEwu4sgub31DyYWiS-41" value="" style="rounded=0;whiteSpace=wrap;html=1;" parent="1" vertex="1">
          <mxGeometry x="630" y="-230" width="120" height="60" as="geometry" />
        </mxCell>
        <mxCell id="35AxEwu4sgub31DyYWiS-42" value="NodeJs" style="text;html=1;strokeColor=none;fillColor=none;align=center;verticalAlign=middle;whiteSpace=wrap;rounded=0;" parent="1" vertex="1">
          <mxGeometry x="370" y="-230" width="60" height="30" as="geometry" />
        </mxCell>
        <mxCell id="35AxEwu4sgub31DyYWiS-43" value="Flask" style="text;html=1;strokeColor=none;fillColor=none;align=center;verticalAlign=middle;whiteSpace=wrap;rounded=0;" parent="1" vertex="1">
          <mxGeometry x="660" y="-220" width="60" height="30" as="geometry" />
        </mxCell>
        <mxCell id="35AxEwu4sgub31DyYWiS-44" value="" style="endArrow=classic;html=1;rounded=0;" parent="1" edge="1">
          <mxGeometry width="50" height="50" relative="1" as="geometry">
            <mxPoint x="620" y="-190" as="sourcePoint" />
            <mxPoint x="470" y="-190" as="targetPoint" />
          </mxGeometry>
        </mxCell>
        <mxCell id="35AxEwu4sgub31DyYWiS-45" value="" style="endArrow=classic;html=1;rounded=0;" parent="1" edge="1">
          <mxGeometry width="50" height="50" relative="1" as="geometry">
            <mxPoint x="330" y="-190" as="sourcePoint" />
            <mxPoint x="170" y="-190" as="targetPoint" />
          </mxGeometry>
        </mxCell>
        <mxCell id="35AxEwu4sgub31DyYWiS-46" value="&lt;font style=&quot;font-size: 9px;&quot;&gt;Cron (Runs Every 1 hour)&lt;/font&gt;" style="text;html=1;strokeColor=none;fillColor=none;align=center;verticalAlign=middle;whiteSpace=wrap;rounded=0;" parent="1" vertex="1">
          <mxGeometry x="325" y="-210" width="150" height="30" as="geometry" />
        </mxCell>
        <mxCell id="35AxEwu4sgub31DyYWiS-47" value="" style="endArrow=classic;html=1;rounded=0;exitX=0.5;exitY=1;exitDx=0;exitDy=0;entryX=0.5;entryY=0;entryDx=0;entryDy=0;entryPerimeter=0;" parent="1" edge="1">
          <mxGeometry relative="1" as="geometry">
            <mxPoint x="399.71" y="-170" as="sourcePoint" />
            <mxPoint x="399.71" y="-70" as="targetPoint" />
            <Array as="points">
              <mxPoint x="350" y="-120" />
            </Array>
          </mxGeometry>
        </mxCell>
        <mxCell id="35AxEwu4sgub31DyYWiS-48" value="" style="shape=message;html=1;outlineConnect=0;" parent="35AxEwu4sgub31DyYWiS-47" vertex="1">
          <mxGeometry width="20" height="14" relative="1" as="geometry">
            <mxPoint x="-10" y="-7" as="offset" />
          </mxGeometry>
        </mxCell>
        <mxCell id="35AxEwu4sgub31DyYWiS-49" value="" style="shape=cylinder3;whiteSpace=wrap;html=1;boundedLbl=1;backgroundOutline=1;size=15;" parent="1" vertex="1">
          <mxGeometry x="370" y="-70" width="60" height="80" as="geometry" />
        </mxCell>
        <mxCell id="35AxEwu4sgub31DyYWiS-50" value="Mongo&lt;br&gt;DB" style="text;html=1;strokeColor=none;fillColor=none;align=center;verticalAlign=middle;whiteSpace=wrap;rounded=0;" parent="1" vertex="1">
          <mxGeometry x="370" y="-40" width="60" height="30" as="geometry" />
        </mxCell>
        <mxCell id="35AxEwu4sgub31DyYWiS-51" value="&lt;font style=&quot;font-size: 8px;&quot;&gt;Cron Saves the News Data Every Hour with TTL of 24 Hours&lt;/font&gt;" style="text;html=1;strokeColor=none;fillColor=none;align=center;verticalAlign=middle;whiteSpace=wrap;rounded=0;" parent="1" vertex="1">
          <mxGeometry x="240" y="-110" width="120" height="30" as="geometry" />
        </mxCell>
        <mxCell id="35AxEwu4sgub31DyYWiS-52" value="" style="endArrow=classic;html=1;rounded=0;exitX=0.5;exitY=0;exitDx=0;exitDy=0;exitPerimeter=0;" parent="1" source="35AxEwu4sgub31DyYWiS-49" edge="1">
          <mxGeometry relative="1" as="geometry">
            <mxPoint x="409.71" y="-160" as="sourcePoint" />
            <mxPoint x="400" y="-170" as="targetPoint" />
            <Array as="points">
              <mxPoint x="450" y="-120" />
            </Array>
          </mxGeometry>
        </mxCell>
        <mxCell id="35AxEwu4sgub31DyYWiS-53" value="" style="shape=message;html=1;outlineConnect=0;" parent="35AxEwu4sgub31DyYWiS-52" vertex="1">
          <mxGeometry width="20" height="14" relative="1" as="geometry">
            <mxPoint x="-10" y="-7" as="offset" />
          </mxGeometry>
        </mxCell>
        <mxCell id="35AxEwu4sgub31DyYWiS-54" value="&lt;span style=&quot;font-size: 8px;&quot;&gt;Sends&amp;nbsp; back stored the News which was stored During Last Job run&lt;/span&gt;" style="text;html=1;strokeColor=none;fillColor=none;align=center;verticalAlign=middle;whiteSpace=wrap;rounded=0;" parent="1" vertex="1">
          <mxGeometry x="430" y="-100" width="130" height="30" as="geometry" />
        </mxCell>
        <mxCell id="35AxEwu4sgub31DyYWiS-55" value="&lt;font style=&quot;font-size: 10px;&quot;&gt;Get News Called&lt;/font&gt;" style="text;html=1;strokeColor=none;fillColor=none;align=center;verticalAlign=middle;whiteSpace=wrap;rounded=0;" parent="1" vertex="1">
          <mxGeometry x="190" y="-240" width="140" height="30" as="geometry" />
        </mxCell>
        <mxCell id="35AxEwu4sgub31DyYWiS-56" value="&lt;font style=&quot;font-size: 10px;&quot;&gt;Sends back pagnised news list&lt;/font&gt;" style="text;html=1;strokeColor=none;fillColor=none;align=center;verticalAlign=middle;whiteSpace=wrap;rounded=0;" parent="1" vertex="1">
          <mxGeometry x="180" y="-199" width="150" height="30" as="geometry" />
        </mxCell>
        <mxCell id="35AxEwu4sgub31DyYWiS-57" value="" style="rounded=0;whiteSpace=wrap;html=1;" parent="1" vertex="1">
          <mxGeometry x="630" y="-470" width="120" height="60" as="geometry" />
        </mxCell>
        <mxCell id="35AxEwu4sgub31DyYWiS-58" value="OPENAI(ChatGPT)" style="text;html=1;strokeColor=none;fillColor=none;align=center;verticalAlign=middle;whiteSpace=wrap;rounded=0;" parent="1" vertex="1">
          <mxGeometry x="660" y="-455" width="60" height="30" as="geometry" />
        </mxCell>
        <mxCell id="35AxEwu4sgub31DyYWiS-59" value="" style="rounded=0;whiteSpace=wrap;html=1;" parent="1" vertex="1">
          <mxGeometry x="630" y="-20" width="120" height="60" as="geometry" />
        </mxCell>
        <mxCell id="35AxEwu4sgub31DyYWiS-60" value="OPENAI(ChatGPT)" style="text;html=1;strokeColor=none;fillColor=none;align=center;verticalAlign=middle;whiteSpace=wrap;rounded=0;" parent="1" vertex="1">
          <mxGeometry x="660" y="-5" width="60" height="30" as="geometry" />
        </mxCell>
      </root>
    </mxGraphModel>
  </diagram>
</mxfile>
